<?xml version="1.0" standalone="no"?>
<!DOCTYPE svg PUBLIC "-//W3C//DTD SVG 20010904//EN"
 "http://www.w3.org/TR/2001/REC-SVG-20010904/DTD/svg10.dtd">
<svg version="1.0" xmlns="http://www.w3.org/2000/svg"
 width="512.000000pt" height="512.000000pt" viewBox="0 0 512.000000 512.000000"
 preserveAspectRatio="xMidYMid meet">
<metadata>
Created by potrace 1.11, written by Peter Selinger 2001-2013
</metadata>
<g transform="translate(0.000000,512.000000) scale(0.100000,-0.100000)"
fill="#000000" stroke="none">
<path d="M29 4260 l-24 -5 0 -1702 c0 -1130 3 -1703 10 -1704 14 0 5077 0
5093 0 9 1 12 349 12 1706 0 938 -3 1705 -7 1706 -38 4 -5065 3 -5084 -1z
m3636 -140 c304 -48 566 -167 795 -362 l75 -64 50 28 c28 15 55 29 60 31 15 6
-38 59 -140 141 -98 79 -232 163 -313 197 -29 12 -52 24 -52 28 0 3 190 6 423
6 l422 0 2 -1568 c1 -1451 0 -1567 -15 -1568 -78 -6 -849 -2 -845 4 2 4 9 7
14 7 6 0 59 27 117 61 117 67 256 168 342 248 l55 51 -24 18 c-13 9 -41 27
-61 39 l-37 22 -64 -55 c-222 -193 -524 -332 -801 -369 l-46 -6 -70 118 c-38
65 -96 165 -129 223 -33 58 -136 236 -228 395 -92 160 -179 311 -194 336 -24
43 -174 302 -215 372 -10 18 -113 196 -229 397 -115 201 -248 430 -294 509
l-84 143 28 37 c29 39 209 220 258 260 45 37 181 123 258 164 265 141 644 205
942 157z m-2018 1 c1 0 -158 -272 -354 -603 -195 -332 -369 -628 -385 -658
-17 -30 -39 -66 -48 -80 -9 -14 -19 -29 -21 -35 -2 -5 -51 -89 -108 -185 -141
-238 -272 -460 -436 -740 -76 -129 -141 -239 -145 -243 -6 -7 -11 2531 -5
2543 3 4 1496 5 1502 1z m1103 2 c0 -1 -30 -17 -67 -36 -139 -70 -226 -126
-332 -215 -71 -59 -182 -169 -219 -217 -23 -29 -24 -29 -39 -10 -8 11 -41 67
-74 125 -33 58 -64 112 -70 120 -35 57 -129 223 -129 228 0 4 209 7 465 7 256
0 465 -1 465 -2z m-966 -238 c16 -27 78 -135 139 -240 60 -104 118 -203 127
-220 9 -16 63 -108 118 -203 56 -96 102 -176 102 -179 0 -3 8 -17 19 -31 10
-15 30 -49 45 -75 14 -27 207 -360 428 -740 221 -381 426 -735 456 -787 30
-52 95 -163 143 -247 49 -83 90 -157 91 -164 2 -10 -324 -13 -1637 -14 -902 0
-1647 1 -1656 3 -15 3 -17 22 -17 149 l1 145 92 157 c50 86 103 176 117 201
14 25 94 162 178 305 83 143 162 278 175 300 12 22 246 424 520 893 l497 853
17 -28 c10 -15 30 -50 45 -78z"/>
</g>
</svg>
